<svg width="101" height="110" viewBox="0 0 101 110" fill="none" xmlns="http://www.w3.org/2000/svg">
<path d="M7.11957 105.131C6.06719 104.237 5.00686 103.36 3.97831 102.45C3.00932 101.593 1.97679 100.771 1.15474 99.7817C0.59479 99.1066 0.0427841 98.1773 0.0189566 97.3473C-0.0525262 94.5158 0.0944106 91.6763 0.189721 88.8409C0.233405 87.578 0.328715 86.3151 0.435939 85.0523C0.682157 82.2287 0.892634 79.3972 1.24211 76.5855C1.4645 74.8064 1.93311 73.0551 2.23889 71.2839C2.43746 70.1322 2.49305 68.9528 2.7075 67.8051C3.12051 65.5851 3.54147 63.3612 4.0617 61.1651C4.84404 57.861 5.52313 54.5093 6.60728 51.3005C7.54053 48.5445 8.9265 45.9353 10.2172 43.3103C10.9518 41.8211 11.8255 40.3835 12.7786 39.0174C13.6483 37.7704 14.6848 36.6307 15.7015 35.4909C16.186 34.9508 16.8015 34.105 17.3416 34.1169C18.8149 34.1526 19.6608 33.0327 20.7688 32.5045C22.2302 31.8056 23.7075 31.3846 25.2444 31.1583C27.4088 30.8406 29.5969 30.7333 31.7295 31.5038C33.1313 32.0121 34.6047 32.3457 35.9549 32.9612C36.912 33.3981 37.7142 34.1645 38.5799 34.792C39.2947 35.3082 40.0215 35.8086 40.7045 36.3606C42.7339 37.9928 44.4892 39.8672 45.9228 42.0634C46.7409 43.3143 47.8488 44.3746 48.6352 45.6375C50.3507 48.3856 51.979 51.1933 53.5754 54.0129C55.5372 57.4758 57.4275 60.9745 59.3496 64.4613C59.5522 64.8306 59.854 65.192 59.9215 65.5931C60.1121 66.7487 60.7038 67.0108 61.8753 67.0863C64.544 67.257 67.1929 67.7137 69.8457 68.0553C70.3381 68.1188 70.8305 68.2181 71.323 68.2419C73.1061 68.3213 73.6779 69.5365 73.8527 71.0178C74.0076 72.3363 74.1624 73.6905 74.0115 74.9931C73.9202 75.7754 73.3444 76.5697 72.8043 77.2051C72.3396 77.7491 71.6327 78.1065 70.9973 78.4838C70.1197 79.004 69.2738 79.3178 68.1142 79.1867C64.27 78.7499 60.398 78.5553 56.538 78.2574C55.3347 78.1661 54.1076 78.1462 52.936 77.8881C52.3602 77.761 51.7447 77.2606 51.3912 76.7603C50.2753 75.1638 49.2666 73.4919 48.2341 71.8399C47.1102 70.0369 46.0022 68.2221 44.8903 66.4112C44.1913 65.2714 43.4924 64.1277 42.7418 62.9045C42.301 64.0443 41.749 65.0133 41.9039 66.3754C42.0468 67.6542 41.5107 69.0004 41.3439 70.3268C41.1493 71.8994 40.9944 73.476 40.8833 75.0566C40.6648 78.1462 40.4464 81.2399 40.3114 84.3335C40.2121 86.6567 40.2478 88.9878 40.224 91.3149C40.1962 94.1901 40.1684 97.0614 40.1525 99.9366C40.1446 101.458 40.1645 102.983 40.1843 104.504C40.1962 105.449 39.5688 105.806 38.7983 106.04C38.1907 106.227 37.595 106.473 36.9755 106.58C35.2123 106.886 33.4411 107.196 31.662 107.395C29.8749 107.593 28.0759 107.669 26.2809 107.788C25.5264 107.839 24.7718 107.891 24.0173 107.871C23.8862 107.867 23.6877 107.53 23.6519 107.319C23.3422 105.48 22.9808 103.646 22.7941 101.795C22.5559 99.464 22.4089 97.117 22.3375 94.7779C22.2858 92.9988 22.4288 91.2157 22.4645 89.4326C22.4804 88.6979 22.5042 87.9553 22.4208 87.2285C22.2461 85.7512 22.4248 84.3295 22.6988 82.8681C22.9887 81.3312 22.8656 79.7228 23.0364 78.1542C23.2667 76.0494 23.6122 73.9605 23.8942 71.8637C24.0411 70.7676 24.1166 69.6636 24.2913 68.5755C24.4899 67.3285 24.8195 66.1014 24.9863 64.8544C25.0856 64.1039 24.9664 63.3295 24.9664 62.563C24.9625 60.0929 24.9625 57.6267 24.9625 55.1566C24.8592 55.1288 24.756 55.101 24.6527 55.0732C24.4025 55.8277 24.1166 56.5743 23.914 57.3448C23.3025 59.664 22.6353 61.9713 22.1587 64.3143C21.7378 66.3873 21.5035 68.5 21.2454 70.6048C20.7807 74.3815 20.2803 78.1582 19.9428 81.9467C19.6648 85.0483 19.6092 88.1697 19.4464 91.2792C19.3233 93.6699 19.1009 96.0646 19.081 98.4553C19.0651 100.6 19.2478 102.748 19.3828 104.889C19.4345 105.691 19.641 106.489 19.6648 107.291C19.6688 107.494 19.2399 107.887 19.0095 107.887C17.8579 107.883 16.6863 107.887 15.5585 107.688C13.8112 107.379 12.0876 106.946 10.376 106.473C10.0504 106.382 9.60558 105.87 9.60956 105.552C9.62941 101.882 9.69692 98.2091 9.81606 94.5396C9.88357 92.4746 9.99874 90.4016 10.2251 88.3484C10.4276 86.5057 10.8287 84.6869 11.1107 82.8522C11.2417 81.9865 11.2537 81.1009 11.3887 80.2312C11.5356 79.29 11.7421 78.3567 11.9566 77.4235C12.175 76.4743 12.457 75.5411 12.6595 74.588C13.0884 72.5349 13.3862 70.4698 14.1408 68.4762C14.6848 67.0307 14.7325 65.4064 15.1376 63.9013C15.7531 61.6218 16.4918 59.3781 17.1669 57.1184C18.255 53.4688 19.4186 49.8391 19.8435 46.0306C19.8514 45.9512 19.7283 45.8599 19.5218 45.5819C18.9142 46.4238 18.3543 47.2061 17.7904 47.9845C15.9874 50.4705 15.217 53.4053 14.2718 56.2527C13.0209 60.0254 11.8215 63.8179 10.7255 67.6383C10.245 69.3102 10.0821 71.0734 9.75252 72.789C9.31171 75.0844 8.80339 77.3718 8.40229 79.6752C8.07665 81.5417 7.83837 83.428 7.61201 85.3104C7.38565 87.1848 7.12752 89.0593 7.05206 90.9416C6.97264 93.0226 7.09972 95.1075 7.11163 97.1924C7.13149 99.7698 7.11957 102.343 7.11957 105.131Z" fill="white"/>
<path d="M30.4453 14.5047C30.9258 12.4715 31.2356 10.3905 31.9464 8.45651C32.3992 7.21351 33.3602 6.11347 34.2418 5.07697C35.0321 4.14769 35.9813 3.33359 36.9423 2.5711C37.538 2.09852 38.2528 1.72522 38.9716 1.46312C40.1908 1.01437 41.4457 0.656955 42.7006 0.319397C44.035 -0.0419874 45.3931 -0.0896425 46.7593 0.140691C47.8752 0.331311 49.0745 0.331311 50.0792 0.772121C51.1912 1.26059 52.458 1.41944 53.4032 2.38843C54.1498 3.15885 55.2975 3.54803 56.0242 4.33037C57.0885 5.4741 57.9384 6.82035 58.8756 8.08322C60.5951 10.4024 60.754 13.1982 60.7619 15.851C60.7699 18.2258 59.8128 20.5053 58.5738 22.6498C57.1203 25.1676 54.8209 26.6409 52.4858 28.0626C51.5129 28.6544 50.2699 28.8172 49.138 29.1349C47.0889 29.7147 45.0079 29.389 42.9866 29.0912C40.719 28.7616 38.6102 27.8323 36.843 26.3073C35.604 25.2391 34.2061 24.2542 33.2848 22.9437C32.3356 21.5934 31.7876 19.9335 31.2475 18.345C30.8345 17.1337 30.7114 15.8272 30.4453 14.5047Z" fill="white"/>
<path d="M100.463 105.09C99.4703 104.045 98.4021 103.04 97.2186 102.226C95.642 101.142 93.8351 100.376 92.2863 99.2518C90.7177 98.116 89.0339 96.9683 88.601 94.8317C88.5653 94.6491 88.3786 94.5061 88.3071 94.3274C88.1483 93.9382 87.8901 93.5331 87.8941 93.136C87.8981 92.2782 88.1483 91.4165 88.1086 90.5626C88.0371 89.0575 87.8028 87.5604 87.6797 86.0553C87.5883 84.987 87.5764 83.9108 87.5129 82.8385C87.4732 82.1714 87.7909 81.7623 88.3826 81.524C89.4866 81.0753 90.6303 80.702 91.6827 80.15C93.438 79.2286 95.1337 78.1842 96.611 76.8379C97.1551 76.3455 97.8183 75.9246 98.1956 75.3289C99.3869 73.4544 100.4 71.5919 100.408 69.1575C100.416 67.6087 100.348 66.465 98.9898 65.496C95.09 67.4936 91.5636 70.063 88.4223 73.244C89.0339 70.6706 89.7646 68.1727 90.4596 65.6668C90.6819 64.8765 90.7495 64.0386 90.9996 63.2602C91.0989 62.9504 91.4841 62.7161 91.774 62.4898C91.9527 62.3548 92.2585 62.3548 92.4094 62.1999C93.6405 60.937 94.8518 59.6503 96.063 58.3716C96.3053 58.1174 96.6071 57.8871 96.75 57.5853C97.2584 56.5091 97.6714 55.3852 98.1956 54.313C98.9144 52.8555 99.3314 51.3663 98.9978 49.7301C98.7674 48.6023 98.5609 47.4705 98.3147 46.3426C98.132 45.5047 97.3854 45.1711 96.7222 45.1115C96.2814 45.0718 95.7771 45.5881 95.3283 45.8939C95.1218 46.0408 94.9789 46.2831 94.8041 46.4816C93.5214 47.9113 91.9369 49.1741 91.0195 50.8103C89.431 53.6418 88.323 56.6997 88.3508 60.0753C88.3667 61.6082 88.0847 63.157 87.8107 64.6779C87.3858 67.0131 86.8536 69.3323 86.3533 71.723C86.2222 71.5125 86.0395 71.3497 86.0197 71.167C85.9125 70.1225 85.9244 69.0582 85.7496 68.0257C85.3009 65.3173 85.2532 62.6248 85.8132 59.9283C85.9839 59.1023 85.4002 58.0539 84.6139 57.9824C84.173 57.9427 83.6846 58.3557 83.2279 58.5821C82.0643 59.1499 81.3455 60.0951 80.7736 61.2428C79.5108 63.7725 79.1613 66.469 79.1534 69.233C79.1534 70.6388 78.9826 72.132 79.9476 73.3313C80.9603 74.5823 82.0484 75.7697 83.1405 76.9531C84.1016 77.9936 84.5185 79.2247 84.3954 80.5948C84.2008 82.7512 83.7878 84.8917 83.7044 87.0481C83.625 89.0814 84.0777 91.1464 83.3867 93.132C83.1802 93.7198 82.7037 94.2202 82.3066 94.7285C82.1278 94.9628 81.8221 95.0978 81.6116 95.3162C80.6188 96.3408 79.7332 97.5004 78.6331 98.39C76.715 99.9388 75.063 101.69 73.7326 103.763C73.5737 104.013 73.1766 104.244 72.8907 104.248C71.3776 104.275 70.6827 105.308 70.0989 106.448C69.9639 106.718 69.952 107.309 70.1227 107.44C70.9726 108.088 71.8502 108.993 72.8192 109.136C74.9319 109.454 77.1042 109.378 79.2527 109.434C79.8285 109.446 80.3686 109.589 80.996 109.398C81.8141 109.148 82.7394 109.271 83.6131 109.18C85.2453 109.009 86.8735 108.751 88.5136 108.616C89.6018 108.529 90.7058 108.616 91.8018 108.576C92.9138 108.541 94.0257 108.409 95.1377 108.378C96.5674 108.338 97.9851 108.31 99.3075 107.659C100.63 107.004 101.206 105.872 100.463 105.09ZM89.6415 76.3296C90.6343 75.1978 91.5755 74.0064 92.6874 73.0017C93.7954 72.0089 95.0742 71.2067 96.2973 70.341C96.4006 70.2655 96.6229 70.3569 96.8771 70.3807C96.0471 73.1089 94.1846 74.7252 91.8495 75.9246C91.2578 76.2303 90.7296 76.6513 90.1419 76.965C89.9433 77.0723 89.6494 77.0047 89.3992 77.0167C89.4787 76.7863 89.4945 76.5004 89.6415 76.3296ZM95.4554 49.742C95.8724 51.9977 93.6644 56.6719 91.778 57.4185C92.1513 55.3375 92.6557 53.1653 95.4554 49.742ZM82.7235 64.4754C83.2041 67.6365 83.6727 70.7421 84.1373 73.7999C81.8181 72.0407 81.1827 68.0853 82.7235 64.4754ZM88.9624 103.628C88.0053 103.06 86.9291 102.631 85.8489 102.353C85.2612 102.202 84.4272 102.298 83.9348 102.627C82.8983 103.326 82.0246 104.26 81.0715 105.082C80.5115 105.566 79.9317 105.979 79.2527 105.01C80.0707 103.378 81.2661 101.976 82.7156 100.812C83.3987 100.26 84.2088 99.7561 85.0428 99.5377C85.6583 99.3709 86.4168 99.6449 87.084 99.8276C87.7194 100.006 88.3071 100.344 88.9306 100.566C90.6065 101.166 91.9448 102.167 92.9972 103.866C91.4603 104.248 90.2332 104.387 88.9624 103.628Z" fill="white"/>
</svg>