<svg width="83" height="99" viewBox="0 0 83 99" fill="none" xmlns="http://www.w3.org/2000/svg">
<path d="M59.6541 32.067C60.9268 29.7415 62.4694 27.6913 64.2178 25.8193C65.6962 24.2355 67.287 22.7521 68.8939 21.2947C69.5656 20.6858 70.4045 20.2647 71.1661 19.7562C71.6707 19.4194 72.2074 19.1571 72.7666 19.5878C73.3869 20.0639 73.4801 20.7376 73.2584 21.4437C72.7956 22.9238 72.3842 24.4299 71.796 25.8582C71.0312 27.7075 70.0766 29.4759 69.27 31.3091C68.2994 33.5115 66.7342 35.2767 65.1305 36.9835C63.9285 38.2596 62.4791 39.3058 61.1357 40.4458C60.6793 40.8345 60.0751 41.1227 59.7891 41.6086C59.5127 42.075 59.4838 42.7389 59.487 43.3154C59.5031 45.33 59.5802 47.3445 59.6445 49.3591C59.6509 49.5437 59.728 49.7251 59.8019 50.0166C61.1614 49.3299 62.4373 48.6595 63.7325 48.0344C65.0148 47.419 66.3196 46.849 67.618 46.2628C68.3508 45.9324 69.0836 45.5988 69.8227 45.2814C70.8833 44.828 71.9342 44.3583 73.0141 43.9567C74.7849 43.2992 76.5526 42.6094 78.3652 42.0912C79.3133 41.8223 80.4092 41.6539 81.338 41.8742C82.3086 42.1041 82.7007 43.1535 82.7424 44.1608C82.826 46.1721 82.8581 48.1866 82.8839 50.2012C82.8839 50.3048 82.6171 50.4668 82.4532 50.5089C79.7921 51.1858 77.1053 51.7655 74.4732 52.5396C71.7639 53.3364 69.0868 54.2562 66.4386 55.244C64.838 55.8432 63.2954 56.6205 61.7752 57.4076C59.7344 58.4666 57.7001 59.5517 55.73 60.7403C54.1488 61.6958 52.6125 62.7484 51.1599 63.8917C49.3216 65.3394 47.5636 66.8908 45.8152 68.4519C44.6647 69.4786 43.5945 70.596 42.4953 71.6616C30.6651 60.7014 17.1091 52.9412 0.763396 50.2336C0.718402 49.8255 0.580206 49.2166 0.599489 48.6109C0.660553 46.5478 0.756968 44.4846 0.904806 42.4248C0.920875 42.2013 1.36117 41.8126 1.5765 41.8321C2.7592 41.9357 3.93869 42.1009 5.10532 42.3244C7.42251 42.7681 9.74291 43.2053 12.0344 43.7656C13.6028 44.1478 15.1293 44.7146 16.6656 45.2328C18.0925 45.7154 19.5066 46.2369 20.9207 46.7518C21.8527 47.0887 22.7687 47.4838 23.7168 47.7494C23.8678 47.7915 24.337 47.3251 24.3724 47.0563C24.6584 44.8506 24.8705 42.632 25.1148 40.4199C25.2819 38.9042 25.4555 37.3884 25.6483 35.8726C25.6869 35.5649 25.8154 35.2702 25.9215 34.901C24.9155 34.2662 23.8035 33.6832 22.8426 32.9156C22.1355 32.352 21.5313 31.6006 21.0396 30.8298C19.8473 28.9545 18.716 27.0112 18.3335 24.7894C18.1022 23.4355 18.1664 22.0234 18.1279 20.6404C18.1182 20.2485 18.1343 19.8307 18.2661 19.468C18.5714 18.6259 19.317 18.438 20.0176 18.9595C20.7086 19.4745 21.4413 19.9408 22.1034 20.4947C23.3343 21.5214 23.9964 22.9465 24.562 24.3975C25.0698 25.6995 25.4715 27.0403 26.1014 28.3715C26.1818 27.7658 26.2943 27.1602 26.3328 26.5513C26.4678 24.3716 26.5803 22.1886 26.696 20.0089C26.7314 19.3319 26.7988 18.6486 26.7442 17.9781C26.7153 17.6251 26.5225 17.2267 26.2814 16.9547C25.5101 16.0802 24.6873 15.2478 23.8742 14.4089C23.3793 13.8972 22.8619 13.4114 22.3702 12.8996C20.6957 11.1604 20.4547 9.07784 21.0171 6.84629C21.4574 5.10056 21.9106 3.3516 22.4955 1.65445C22.6562 1.18806 23.3247 0.899808 23.7618 0.527344C24.2567 1.15891 24.7516 1.57348 24.9605 2.10141C25.5937 3.6852 26.1818 5.29489 26.6542 6.93374C27.0495 8.31024 27.2584 9.74179 27.5123 10.9823C28.8043 9.23978 29.9709 7.28353 31.5104 5.6965C33.0723 4.09005 34.8817 2.64877 37.1635 2.0755C37.8192 1.91032 38.4684 1.61883 39.124 1.60263C39.4904 1.59292 40.0239 1.94919 40.191 2.28926C40.3292 2.5678 40.1074 3.10221 39.9178 3.452C39.1947 4.79611 38.4427 6.12403 37.652 7.42928C37.0382 8.44627 36.0965 9.34018 35.7623 10.4317C35.3863 11.6559 34.525 12.4689 33.9304 13.4859C32.9823 15.1053 31.7835 16.5887 29.9195 17.1717C29.0614 17.4405 28.8814 18.0429 28.8236 18.6745C28.6404 20.7667 28.5665 22.8687 28.4347 24.9675C28.3286 26.6841 28.1969 28.4007 28.0812 30.1172C28.0715 30.2468 28.1101 30.3796 28.1326 30.5739C29.161 29.4014 30.0352 28.1998 31.1118 27.225C32.6095 25.8679 34.2068 24.5983 35.8651 23.4485C36.9546 22.6938 38.2177 22.1918 39.4261 21.625C40.1781 21.272 40.9527 21.7384 40.8723 22.6226C40.7341 24.1675 40.4449 25.7027 40.1171 27.2217C39.9564 27.9634 39.6189 28.6792 39.2783 29.3658C38.9601 30.0039 38.6001 30.6484 38.1341 31.1796C37.3307 32.0929 36.4854 32.9868 35.5534 33.7641C34.7789 34.4151 33.8661 34.9042 32.9984 35.4354C31.9539 36.0702 30.8997 36.6985 29.8231 37.2718C29.2317 37.586 28.5793 37.7835 27.7244 38.1236C27.7244 39.756 27.6923 41.5179 27.7341 43.2798C27.7823 45.2458 27.8851 47.2085 27.9976 49.1712C28.0073 49.3591 28.2451 49.6085 28.4379 49.7024C30.7808 50.8619 33.1912 51.8951 35.473 53.1679C37.652 54.3825 39.7218 55.7979 41.7883 57.2003C43.0352 58.0488 44.1858 59.0432 45.4424 60.0213C46.8372 58.8585 48.3735 57.5565 49.9418 56.2934C50.4175 55.9112 50.9992 55.6715 51.5134 55.3347C52.1497 54.9169 52.7604 54.4602 53.3903 54.0295C54.3834 53.3493 55.4215 52.721 56.3567 51.9696C56.6042 51.772 56.6202 51.202 56.6395 50.8004C56.7263 48.8635 56.707 46.917 56.887 44.9899C56.9416 44.4069 56.8645 44.164 56.4145 43.8855C55.0326 43.0207 54.242 41.6539 53.5317 40.2515C52.8857 38.9754 52.2847 37.6702 51.7191 36.3552C50.8031 34.2338 49.9579 32.0702 50.1989 29.6929C50.2986 28.7213 50.3018 27.6622 51.2434 26.9594C51.8541 26.5059 52.3844 26.6679 52.8247 27.1019C54.2998 28.5626 55.6946 30.0978 56.7038 31.9407C56.9545 32.3974 57.1216 32.8961 57.353 33.3625C57.4205 33.4986 57.578 33.586 57.7033 33.7058C57.7033 31.8694 57.7226 30.0881 57.6969 28.31C57.6615 25.7902 57.6326 23.2704 57.5008 20.757C57.4719 20.2259 57.1987 19.7109 56.347 19.5813C54.8912 19.3611 53.6635 18.5028 52.6929 17.366C51.5841 16.064 50.9446 14.4737 50.6682 12.8413C50.3307 10.843 50.4175 8.79282 51.2916 6.88191C51.6773 6.03982 52.8439 5.74833 53.702 6.15966C55.5854 7.05681 56.2024 8.81549 56.8098 10.6098C57.414 12.3944 57.7515 14.2276 57.8833 16.1028C57.8961 16.2875 58.0311 16.4656 58.2657 16.6534C58.3621 16.0284 58.42 15.3903 58.5614 14.7749C59.1688 12.1742 60.1458 9.77742 62.373 8.11267C63.4272 7.32563 64.4685 6.52564 65.5451 5.771C66.2779 5.25926 67.2709 5.42121 67.663 5.94266C68.0262 6.43172 67.9748 7.46166 67.7466 8.12886C67.1938 9.75475 66.4868 11.3353 65.7315 12.8802C65.2751 13.8195 64.6677 14.694 64.0442 15.5328C63.064 16.8478 62.1384 18.2372 60.9654 19.3611C59.2042 21.0485 59.4002 23.1311 59.4323 25.2104C59.4741 27.4938 59.5802 29.7804 59.6541 32.067ZM59.7505 39.0823C65.1177 34.6969 68.7525 29.2849 70.5234 22.4801C69.6556 23.1376 68.8393 23.6137 68.1997 24.2679C66.8692 25.625 65.5933 27.0436 64.3656 28.4978C63.0447 30.0654 61.9263 31.769 60.9782 33.6152C60.088 35.3479 59.7666 37.1228 59.7505 39.0823ZM38.1727 24.31C37.8159 24.472 37.501 24.5497 37.2632 24.7311C35.2513 26.2695 33.0916 27.633 31.4397 29.6087C30.8579 30.3051 30.2666 30.9949 29.7492 31.7399C29.4214 32.2063 29.2092 32.7601 28.9714 33.2848C28.6982 33.8969 28.4572 34.5253 28.1358 35.2961C33.1591 33.8872 38.5744 27.8695 38.1727 24.31ZM52.0115 28.6047C51.9055 33.6735 54.483 37.6507 56.7102 41.8839C57.8672 38.1916 55.4568 31.4128 52.0115 28.6047ZM36.4918 4.71838C32.0728 7.37422 29.8809 10.8689 28.9232 15.2964C30.7969 14.9012 34.901 9.1912 36.4918 4.71838ZM56.0546 17.8291C56.2153 15.698 54.0909 8.96772 53.0625 8.27137C51.8251 10.5936 52.5033 15.6397 56.0546 17.8291ZM20.5125 21.6186C19.407 23.2736 22.4859 29.9294 25.1212 31.4257C23.7489 27.9764 23.2154 24.3392 20.5125 21.6186ZM59.9048 17.5797C60.1362 17.298 60.3836 17.0259 60.5925 16.7312C61.5856 15.332 62.6301 13.962 63.5397 12.5077C64.1889 11.4681 64.6581 10.3151 65.1916 9.20739C65.2237 9.13937 65.1273 8.91913 65.0984 8.91913C64.9409 8.92885 64.7288 8.92885 64.6356 9.02925C63.6971 10.0333 62.7587 11.0373 61.8652 12.0802C61.4635 12.5499 61.1357 13.0972 60.84 13.6413C60.1876 14.8494 59.8212 16.1417 59.9048 17.5797ZM23.6493 4.84146C21.9363 9.8843 23.1286 11.0827 25.5004 12.9903C24.8834 10.2762 24.2856 7.64304 23.6493 4.84146Z" fill="white"/>
<path d="M0.580525 64.7148C1.97212 65.0679 3.35729 65.4274 4.74889 65.7739C5.87696 66.0557 7.03394 66.2533 8.13308 66.6193C9.91034 67.212 11.678 67.85 13.4038 68.5788C15.4542 69.4435 17.5079 70.3245 19.4651 71.3803C22.2773 72.8961 25.0701 74.4767 27.7472 76.2191C29.772 77.5373 31.6681 79.0823 33.5097 80.6596C35.4733 82.3405 37.3085 84.1737 39.1821 85.9583C39.5228 86.2822 39.751 86.7259 40.0917 87.0465C40.7955 87.7072 41.1683 88.64 41.9846 89.2327C42.4538 89.5728 42.6917 90.2303 43.058 90.7258C43.7169 91.6165 44.35 92.5363 45.0828 93.3655C46.1498 94.5735 46.8054 96.031 47.6121 97.3946C47.8917 97.8707 48.1841 98.3403 48.5794 98.9913C47.7663 98.9298 47.0368 98.8715 46.3073 98.8196C46.2398 98.8164 46.1723 98.852 46.1016 98.8617C45.2081 98.9978 44.3597 98.8002 43.5048 98.5638C43.0934 98.4504 42.6338 98.512 42.1935 98.4958C41.419 98.4666 40.6316 98.499 39.8667 98.3889C38.9347 98.2529 38.0251 97.9516 37.0899 97.8059C36.3057 97.6828 35.4958 97.7346 34.7117 97.618C34.0046 97.5144 33.3169 97.2683 32.613 97.1225C32.1309 97.0221 31.6328 96.9865 31.1443 96.9152C30.479 96.8213 29.8137 96.7079 29.1453 96.627C28.5796 96.5589 28.0043 96.5622 27.4451 96.465C26.8891 96.3679 26.2367 96.3322 25.8157 96.0148C24.8194 95.2602 23.5435 95.5938 22.5376 94.9946C22.1969 94.7938 21.853 94.5995 21.5059 94.4084C21.3838 94.3404 21.2585 94.2367 21.1299 94.227C20.0983 94.1493 19.2145 93.7962 18.2985 93.2553C17.2926 92.6626 16.0167 92.559 14.9368 92.0667C13.8537 91.5744 12.7321 91.1793 11.7422 90.3987C10.7492 89.6181 9.40898 89.304 8.31306 88.6303C7.48388 88.1218 6.63221 87.6457 5.85446 86.9785C5.03493 86.2724 4.15433 85.6603 3.6594 84.6984C3.11304 83.636 2.58597 82.5284 2.29672 81.3786C1.84357 79.5908 1.49969 77.7608 1.29079 75.9309C0.972615 73.1293 0.792639 70.3115 0.583738 67.5002C0.529103 66.684 0.580525 65.8581 0.580525 64.7148Z" fill="white"/>
<path d="M0.582031 61.8252C0.582031 58.8066 0.582031 55.8917 0.582031 52.7598C3.03099 53.4334 5.34175 54.0261 7.6268 54.7128C10.3136 55.5225 13.0325 56.2771 15.6357 57.3135C18.1843 58.3273 20.6397 59.6066 23.0726 60.8892C24.8981 61.8511 26.656 62.9523 28.3851 64.0859C29.7446 64.9766 31.0076 66.0195 32.3285 66.9685C32.9648 67.4284 33.6751 67.7879 34.2922 68.2737C35.4941 69.2195 36.6736 70.1976 37.8242 71.2049C38.5987 71.885 39.3122 72.6364 40.045 73.3652C41.4655 74.7838 42.8957 76.1959 44.2969 77.6372C45.5246 78.9003 46.7234 80.1861 47.9125 81.4849C48.16 81.7537 48.3142 82.11 48.5006 82.4306C48.6324 82.6573 48.687 82.9747 48.8766 83.1108C50.1975 84.0598 50.7375 85.5658 51.5891 86.8548C52.4022 88.0888 53.3503 89.2289 54.1731 90.4564C54.6262 91.1333 54.9573 91.8977 55.3172 92.6329C56.1592 94.3592 56.9916 96.0887 57.8079 97.828C57.9012 98.0256 57.8626 98.2847 57.9012 98.6506C56.7506 98.6506 55.6547 98.6312 54.5587 98.6604C54.0349 98.6733 53.5175 98.8061 52.9936 98.8353C52.6079 98.8579 52.2126 98.8353 51.8334 98.7705C51.6791 98.7446 51.4992 98.5923 51.4124 98.4466C50.2875 96.5616 49.2559 94.6118 48.041 92.7884C46.733 90.8224 45.2836 88.9471 43.8437 87.0751C43.2106 86.2524 42.4618 85.5205 41.7387 84.7723C40.5335 83.5286 39.354 82.2492 38.0717 81.093C36.4647 79.6452 34.7582 78.3141 33.103 76.9181C30.5994 74.8097 27.9127 72.9571 25.0748 71.3571C22.568 69.945 19.9937 68.6462 17.3873 67.4284C15.3883 66.4956 13.3378 65.6406 11.2392 64.9669C7.78428 63.8592 4.27475 62.9232 0.787718 61.9127C0.700944 61.89 0.627025 61.8447 0.582031 61.8252Z" fill="white"/>
<path d="M43.9727 73.2C54.6523 62.0358 67.9095 56.0699 82.7286 53.0254C82.7286 56.5136 82.7286 59.8625 82.7286 63.2568C81.5298 63.5159 80.331 63.7297 79.1644 64.0439C77.5382 64.4811 75.9023 64.9086 74.3275 65.4981C71.4029 66.5928 68.488 67.7296 65.6341 68.9928C63.7411 69.8316 61.9703 70.9523 60.1223 71.9012C57.7601 73.1093 55.5779 74.5927 53.505 76.238C52.3897 77.1255 51.3227 78.0809 50.2686 79.0396C49.8347 79.4347 49.6644 79.4866 49.208 78.9522C47.5497 77.0153 45.7821 75.1725 43.9727 73.2Z" fill="white"/>
<path d="M56.8944 89.847C55.1332 87.1102 53.3399 84.3183 51.4727 81.4163C60.4843 73.7857 70.9358 69.0278 82.6663 66.9355C82.7274 67.9461 82.8335 68.9566 82.8399 69.9671C82.8495 71.2205 82.8045 72.4804 82.7145 73.7306C82.6953 73.98 82.3996 74.3784 82.1778 74.4205C77.7106 75.2982 73.7832 77.452 69.9266 79.7257C67.468 81.1734 65.0351 82.7021 62.7469 84.4122C60.8185 85.8535 59.1152 87.5992 57.3251 89.2219C57.1323 89.3968 57.0166 89.6656 56.8944 89.847Z" fill="white"/>
<path d="M82.7273 77.1562C82.5859 78.0696 82.4862 78.7757 82.3609 79.4752C82.1102 80.8712 81.747 82.2542 81.6056 83.6566C81.4482 85.2339 80.3555 86.2994 79.7898 87.6338C79.327 88.7286 78.3596 89.3051 77.7812 90.2638C77.328 91.0184 76.4185 91.4945 75.7146 92.0969C75.4865 92.2913 75.1747 92.4532 75.0622 92.7026C74.7955 93.2888 73.8378 93.0751 73.7895 93.8718C73.7895 93.8945 73.6706 93.9074 73.6128 93.9333C72.7418 94.3252 71.8644 94.7107 70.9999 95.1188C70.1129 95.5366 69.2644 96.2588 68.3549 96.343C67.0951 96.4596 66.1084 97.2726 64.8518 97.3406C63.8491 97.3957 62.8721 97.8264 61.8661 97.9916C61.6283 98.0305 61.2169 97.7292 61.0723 97.4734C60.2496 96.0127 59.4622 94.5293 58.7198 93.0232C58.6073 92.7965 58.6876 92.301 58.8676 92.1261C60.8473 90.1925 62.7885 88.2071 64.8904 86.4128C67.5643 84.1294 70.5564 82.2865 73.6963 80.719C74.8758 80.1295 76.1517 79.7343 77.3826 79.2518C79.1149 78.5716 80.8504 77.8915 82.7273 77.1562Z" fill="white"/>
</svg>
